# xmcd CD database file
#
# Track frame offsets:
#	150
#	14336
#	29692
#	48792
#	62947
#	81326
#	99562
#	125382
#	138128
#	150731
#
# Disc length: 2209 seconds
#
# Revision: 0
# Processed by: cddbd v1.5.1PL0 Copyright (c) Steve Scherf et al.
# Submitted via: Feurio! 1.67 - http://www.feurio.com
#
DISCID=7f089f0a
DTITLE=Al Green - Al Green is Love
DYEAR=1900
DGENRE=
TTITLE0=L-O-V-E (Love)
TTITLE1=Rhymes
TTITLE2=The Love Sermon
TTITLE3=There is love
TTITLE4=Could I be the one?
TTITLE5=Love Ritual
TTITLE6=I didn't know
TTITLE7=Oh me, oh my (Dreams in my arms)
TTITLE8=I gotta be more (Take me higher)
TTITLE9=I wish you were here
EXTD=
EXTT0=
EXTT1=
EXTT2=
EXTT3=
EXTT4=
EXTT5=
EXTT6=
EXTT7=
EXTT8=
EXTT9=
PLAYORDER=
